<?xml version="1.0" encoding="utf-8"?>
<!-- Generator: Adobe Illustrator 25.1.0, SVG Export Plug-In . SVG Version: 6.00 Build 0)  -->
<svg version="1.1" id="Layer_1" xmlns="http://www.w3.org/2000/svg" xmlns:xlink="http://www.w3.org/1999/xlink" x="0px" y="0px"
	 viewBox="0 0 100.2 100" style="enable-background:new 0 0 100.2 100;" xml:space="preserve">
<style type="text/css">
	.st0{fill:url(#SVGID_1_);}
	.st1{fill-rule:evenodd;clip-rule:evenodd;fill:url(#SVGID_2_);}
	.st2{fill-rule:evenodd;clip-rule:evenodd;fill:url(#SVGID_3_);}
	.st3{fill:none;}
	.st4{fill-rule:evenodd;clip-rule:evenodd;fill:#FFFFFF;}
</style>
<g>
	
		<linearGradient id="SVGID_1_" gradientUnits="userSpaceOnUse" x1="0.3987" y1="545.2756" x2="87.14" y2="545.2756" gradientTransform="matrix(1 0 0 1 0 -495.2756)">
		<stop  offset="0" style="stop-color:#F7CE2A"/>
		<stop  offset="0.13" style="stop-color:#F7CF2D;stop-opacity:0.98"/>
		<stop  offset="0.26" style="stop-color:#F8D138;stop-opacity:0.94"/>
		<stop  offset="0.38" style="stop-color:#F8D549;stop-opacity:0.85"/>
		<stop  offset="0.51" style="stop-color:#F9DB61;stop-opacity:0.74"/>
		<stop  offset="0.64" style="stop-color:#FAE281;stop-opacity:0.59"/>
		<stop  offset="0.77" style="stop-color:#FCEBA7;stop-opacity:0.41"/>
		<stop  offset="0.89" style="stop-color:#FDF5D4;stop-opacity:0.2"/>
		<stop  offset="1" style="stop-color:#FFFFFF;stop-opacity:0"/>
	</linearGradient>
	<path class="st0" d="M81.9,66.9L60.3,88.4C54.9,94,46,94.1,40.4,88.6c0-0.1-0.1-0.1-0.1-0.1L12,60.2c-5.6-5.6-5.6-14.7,0-20.3
		c0,0,0,0,0,0l28.3-28.3c5.5-5.5,14.4-5.6,20-0.1c0,0,0.1,0.1,0.1,0.1L81,32.2l5.2-5.2L65.6,6.3C61.5,2.3,56,0,50.3,0l0,0
		c-5.7,0-11.2,2.3-15.2,6.3L6.8,34.6c-8.5,8.5-8.5,22.2,0,30.7c0,0,0,0,0,0l28.3,28.3c3.7,3.7,8.6,5.9,13.8,6.3c0.5,0,1,0.1,1.5,0.1
		l0,0c0.5,0,1,0,1.5-0.1c5.2-0.4,10.1-2.6,13.8-6.3l21.6-21.6L81.9,66.9z"/>
	
		<linearGradient id="SVGID_2_" gradientUnits="userSpaceOnUse" x1="27.9475" y1="536.584" x2="74.1575" y2="536.584" gradientTransform="matrix(1 0 0 1 0 -495.2756)">
		<stop  offset="0" style="stop-color:#FFFFFF"/>
		<stop  offset="0.13" style="stop-color:#FFFFFF;stop-opacity:0.98"/>
		<stop  offset="0.25" style="stop-color:#FFFFFF;stop-opacity:0.94"/>
		<stop  offset="0.38" style="stop-color:#FFFFFF;stop-opacity:0.86"/>
		<stop  offset="0.5" style="stop-color:#FFFFFF;stop-opacity:0.75"/>
		<stop  offset="0.63" style="stop-color:#FFFFFF;stop-opacity:0.61"/>
		<stop  offset="0.75" style="stop-color:#FFFFFF;stop-opacity:0.43"/>
		<stop  offset="0.88" style="stop-color:#FFFFFF;stop-opacity:0.23"/>
		<stop  offset="1" style="stop-color:#FFFFFF;stop-opacity:0"/>
	</linearGradient>
	<path class="st1" d="M50.2,25.1l19,19l5-5l-19-19c-1.3-1.5-3.2-2.3-5.1-2.2c-1.8,0.1-3.5,1-4.8,2.3L30.4,35.1
		c-3.3,3.3-3.3,6.6,0,9.9l19.8,19.8v-9.9L35.3,40L50.2,25.1z"/>
	
		<linearGradient id="SVGID_3_" gradientUnits="userSpaceOnUse" x1="26.45" y1="553.9671" x2="72.66" y2="553.9671" gradientTransform="matrix(1 0 0 1 0 -495.2756)">
		<stop  offset="0" style="stop-color:#FFFFFF;stop-opacity:0"/>
		<stop  offset="0.12" style="stop-color:#FFFFFF;stop-opacity:0.23"/>
		<stop  offset="0.25" style="stop-color:#FFFFFF;stop-opacity:0.43"/>
		<stop  offset="0.37" style="stop-color:#FFFFFF;stop-opacity:0.61"/>
		<stop  offset="0.5" style="stop-color:#FFFFFF;stop-opacity:0.75"/>
		<stop  offset="0.62" style="stop-color:#FFFFFF;stop-opacity:0.86"/>
		<stop  offset="0.75" style="stop-color:#FFFFFF;stop-opacity:0.94"/>
		<stop  offset="0.87" style="stop-color:#FFFFFF;stop-opacity:0.98"/>
		<stop  offset="1" style="stop-color:#FFFFFF"/>
	</linearGradient>
	<path class="st2" d="M50.4,74.9l-19-19l-5,5l19,19c1.3,1.5,3.2,2.3,5.1,2.2c1.8-0.1,3.5-1,4.8-2.3l14.9-14.9c3.3-3.3,3.3-6.6,0-9.9
		L50.4,35.2v9.9L65.3,60L50.4,74.9z"/>
	<path class="st3" d="M100.2,50c0,5.8-2.3,11.3-6.4,15.3L87.1,72l-5.2-5.2l6.7-6.7c5.6-5.6,5.6-14.7,0-20.3c0,0,0,0,0,0L81,32.2
		l5.2-5.2l7.6,7.6C97.9,38.7,100.2,44.2,100.2,50z"/>
	<polygon class="st4" points="74.2,49.1 79.1,44.1 84.1,49.1 79.1,54 	"/>
	<polygon class="st4" points="16.6,50.1 21.6,45.2 26.6,50.1 21.6,55.1 	"/>
</g>
</svg>
