<svg width="33" height="32" viewBox="0 0 33 32" fill="none" xmlns="http://www.w3.org/2000/svg">
<path d="M31.0904 18.906L31.0901 18.9057L29.8927 17.6196L29.7353 17.4506L29.7581 17.2551L29.7567 17.237L29.7604 17.1952C29.7852 16.919 29.8017 16.6394 29.8128 16.3574C29.8137 16.327 29.8136 16.2934 29.8133 16.2507L29.8132 16.2383L31.0904 18.906ZM31.0904 18.906C31.1922 19.0152 31.3128 19.1351 31.4302 19.2517C31.4836 19.3049 31.5364 19.3574 31.5865 19.4079C31.7556 19.5786 31.9114 19.744 32.0376 19.9069C32.3131 20.2625 32.3293 20.4507 32.2823 20.5631L32.282 20.5638L30.9537 23.7546L30.9537 23.7546C30.9069 23.8672 30.7611 23.9884 30.3142 24.0438C30.1095 24.0692 29.8822 24.0753 29.6419 24.0757C29.5702 24.0758 29.495 24.0754 29.4188 24.0749C29.254 24.0739 29.0848 24.0729 28.9363 24.0776L28.9359 24.0776L27.1801 24.134L26.955 24.1412L26.8264 24.2964L31.0904 18.906ZM24.922 26.171L25.0937 26.0278C25.2297 25.9143 25.3626 25.7949 25.4966 25.6728C25.5203 25.6482 25.5419 25.6291 25.5575 25.616C25.5677 25.6074 25.5773 25.5996 25.5823 25.5956L24.922 26.171ZM24.922 26.171L24.9143 26.3945M24.922 26.171L24.9143 26.3945M24.9143 26.3945L24.8539 28.146L24.9143 26.3945ZM29.803 15.4919C29.8125 15.6947 29.8155 15.8989 29.8133 16.1117L24.8539 28.1463C24.8487 28.2961 24.8491 28.4665 24.8495 28.6321C24.8497 28.7078 24.8499 28.7824 24.8495 28.8537C24.8483 29.0942 24.8414 29.3211 24.8152 29.5254C24.7583 29.9698 24.6367 30.1161 24.5209 30.1639L21.3308 31.4785L21.3305 31.4786C21.216 31.5259 21.0278 31.5085 20.6747 31.2329C20.5124 31.1063 20.3478 30.9501 20.1776 30.7801C20.1277 30.7302 20.0757 30.6775 20.023 30.6242C19.9062 30.5058 19.7859 30.3838 19.676 30.2806L19.6755 30.2801L18.3952 29.081L18.2384 28.9341L18.024 28.9467C17.8845 28.955 17.7477 28.9619 17.6055 28.9681L17.6055 28.9681L17.5987 28.9685C17.565 28.9704 17.5339 28.9724 17.5044 28.9742C17.4432 28.9781 17.3888 28.9815 17.3314 28.9834V28.9834L17.3255 28.9837C17.1211 28.993 16.9184 28.9971 16.7184 28.9925L16.7184 28.9923L16.7083 28.9923C16.6581 28.9922 16.6199 28.9926 16.5854 28.993C16.5418 28.9935 16.5043 28.994 16.4567 28.993C16.4282 28.992 16.399 28.9903 16.3634 28.9883L16.3591 28.988C16.3267 28.9862 16.2891 28.9841 16.2495 28.9826C16.2187 28.9799 16.1909 28.9784 16.1713 28.9774C16.1562 28.9767 16.1451 28.9761 16.1359 28.9756C16.1282 28.9752 16.1219 28.9747 16.1155 28.9742L16.1071 28.9735L16.0986 28.973C16.0723 28.9717 16.0467 28.9704 16.0216 28.9692C15.8814 28.9622 15.7586 28.9562 15.6341 28.9424L15.6113 28.9398L15.5883 28.9394C15.5726 28.9391 15.5593 28.9394 15.5497 28.9398C15.544 28.94 15.5385 28.9403 15.5347 28.9405L15.3443 28.937L15.1964 29.0746L13.9101 30.2717L13.9096 30.2721C13.8001 30.3743 13.6799 30.4953 13.5631 30.6129C13.5103 30.6661 13.4582 30.7186 13.4081 30.7683C13.2377 30.9373 13.0726 31.0929 12.91 31.219C12.5555 31.4939 12.3674 31.5105 12.2542 31.4634L12.2542 31.4634L9.06344 30.1352L9.06341 30.1351C8.95086 30.0883 8.82961 29.9425 8.7742 29.4956C8.74881 29.2908 8.74263 29.0636 8.74221 28.8233C8.74209 28.7517 8.74253 28.6768 8.74297 28.6008C8.74393 28.436 8.74492 28.2667 8.74024 28.1181C8.74024 28.1179 8.74023 28.1178 8.74023 28.1176L8.68672 26.3611L8.6797 26.1308L8.50001 25.9865C8.43393 25.9334 8.37253 25.8785 8.29996 25.8136C8.27308 25.7895 8.24467 25.7641 8.21391 25.7369C8.14422 25.6726 8.07206 25.6101 8.00924 25.5557C8.0024 25.5498 7.99567 25.544 7.98906 25.5382C7.85013 25.4076 7.71425 25.2723 7.57614 25.1322C7.53804 25.0926 7.49967 25.0557 7.46893 25.0261L7.45927 25.0168C7.42403 24.9828 7.39784 24.9572 7.37405 24.9316C7.18596 24.7288 7.00811 24.5302 6.84006 24.3289C6.8305 24.3166 6.82162 24.306 6.81403 24.2974C6.81152 24.2945 6.80904 24.2918 6.8067 24.2892L6.67977 24.103L6.42642 24.0944L4.67304 24.0349C4.67275 24.0349 4.67247 24.0349 4.67219 24.0348C4.52121 24.0294 4.34958 24.0297 4.18288 24.0301C4.10879 24.0302 4.03567 24.0304 3.96578 24.03C3.72524 24.0288 3.49813 24.0219 3.29357 23.9958C2.84826 23.939 2.70202 23.8174 2.65447 23.702L2.65445 23.7019L1.33983 20.512L1.33982 20.5119C1.29275 20.3977 1.31039 20.2092 1.58674 19.8553C1.71358 19.6928 1.86994 19.5281 2.0398 19.358C2.08909 19.3086 2.14103 19.2573 2.19365 19.2053C2.31244 19.088 2.43475 18.9673 2.53819 18.8569C2.53823 18.8569 2.53828 18.8568 2.53832 18.8568L3.7405 17.5754L3.89959 17.4058L3.87539 17.2L3.87595 17.1907L3.87234 17.1523C3.86596 17.0845 3.86366 17.0357 3.86096 16.9786C3.85871 16.931 3.8562 16.8778 3.85084 16.803C3.84848 16.7659 3.8461 16.73 3.84379 16.695C3.83641 16.5835 3.82961 16.4808 3.82568 16.3747C3.81456 16.0542 3.82211 15.7288 3.83803 15.3951L3.83893 15.3762L3.83888 15.3742C3.83923 15.3696 3.83965 15.3635 3.84001 15.3573C3.84042 15.3502 3.84086 15.3411 3.84108 15.3304C3.84284 15.2982 3.84451 15.2666 3.84616 15.2355C3.85497 15.0695 3.863 14.9181 3.87795 14.7649L3.89989 14.5402L3.74579 14.3751L2.54593 13.09C2.44401 12.9808 2.32338 12.8609 2.20609 12.7444C2.15267 12.6913 2.09995 12.6389 2.05 12.5885C1.88105 12.4181 1.72552 12.253 1.59947 12.0903C1.32486 11.7359 1.30792 11.5476 1.35488 11.4344C1.35489 11.4343 1.3549 11.4343 1.35491 11.4343C1.35493 11.4343 1.35495 11.4342 1.35498 11.4341L2.68341 8.24359L2.68347 8.24345C2.73025 8.131 2.87531 8.0101 3.32099 7.955C3.52531 7.92974 3.75213 7.92367 3.99214 7.92337C4.06338 7.92328 4.13804 7.92375 4.21367 7.92422C4.37875 7.92525 4.54847 7.92632 4.69743 7.92166L6.4544 7.86788L6.67871 7.86102L6.82267 7.68886C6.90272 7.59314 6.98585 7.50188 7.07786 7.40203L7.07798 7.40214L7.08645 7.39246C7.11513 7.35968 7.14 7.33078 7.16316 7.30387C7.20345 7.25704 7.23859 7.21621 7.27967 7.17138C7.40763 7.03361 7.54322 6.89767 7.68173 6.76274L7.6818 6.76282L7.68893 6.75558C7.70437 6.73992 7.71946 6.72458 7.7343 6.70949C7.78998 6.65287 7.84219 6.59979 7.89629 6.54657C8.08676 6.36777 8.28357 6.19507 8.48531 6.02691L8.50128 6.0136L8.51609 5.999L8.52447 5.99071L8.5309 5.98431L8.53373 5.98154L8.71257 5.84679L8.72101 5.60858L8.78317 3.85358C8.78318 3.85341 8.78318 3.85325 8.78319 3.85308C8.7888 3.70037 8.78834 3.52697 8.78789 3.35875C8.7877 3.28614 8.78751 3.21449 8.78781 3.14589C8.78887 2.90529 8.79551 2.67826 8.82133 2.47377C8.87755 2.02847 8.99878 1.88314 9.11343 1.83591L9.11349 1.83589L12.3035 0.521276C12.3035 0.521273 12.3035 0.521269 12.3035 0.521266C12.4182 0.47401 12.6076 0.491985 12.9622 0.768163C13.125 0.894942 13.2901 1.05122 13.4607 1.22095C13.5104 1.27043 13.562 1.32258 13.6143 1.37542C13.7314 1.49372 13.852 1.61546 13.9621 1.71847C13.9623 1.71867 13.9625 1.71888 13.9627 1.71908L15.2397 2.92133L15.4268 3.09754L15.6494 3.05371C15.6577 3.05314 15.6674 3.0523 15.6781 3.05109L15.6857 3.05081C15.6962 3.05047 15.719 3.04987 15.7408 3.04876L15.7496 3.04831L15.7584 3.04754C15.9892 3.02751 16.2196 3.01315 16.449 3.00588L16.4525 3.00574C16.5838 3.00066 16.7096 3.00234 16.8487 3.0042C16.8939 3.0048 16.9405 3.00542 16.9891 3.00584L16.9891 3.00589L16.9964 3.00585C17.0156 3.00573 17.0336 3.00558 17.0505 3.00544C17.1171 3.00489 17.1678 3.00447 17.2198 3.00652L17.2202 3.00654C17.5026 3.01741 17.7769 3.03189 18.05 3.05926L18.2755 3.08184L18.4411 2.92722L19.726 1.72762C19.8348 1.62608 19.9544 1.5058 20.0707 1.38877C20.1242 1.33498 20.177 1.28187 20.2278 1.23157C20.3985 1.06251 20.5639 0.906759 20.7269 0.780494C21.0826 0.505036 21.2714 0.488303 21.3842 0.535281L21.3843 0.535297L24.5753 1.8633L24.7674 1.40168L24.5753 1.8633C24.6876 1.91004 24.8085 2.05505 24.8636 2.50078C24.8888 2.7051 24.8948 2.93192 24.8951 3.17192C24.8952 3.24332 24.8947 3.31816 24.8942 3.39397C24.8931 3.55887 24.892 3.72838 24.8966 3.87713L24.8967 3.8778L24.9533 5.63404L24.9597 5.83166L25.0961 5.96806L25.0985 5.9707L25.1116 5.98484C25.1174 5.991 25.1252 5.99912 25.1345 6.00819L25.1512 6.02449L25.1694 6.03916C25.1795 6.04731 25.1882 6.05374 25.194 6.05796C25.1945 6.05834 25.1951 6.05871 25.1956 6.05907L25.2148 6.07577C25.4004 6.23645 25.5761 6.38861 25.7422 6.54843L25.7446 6.55073C25.8284 6.63023 25.9091 6.71189 25.996 6.79979C26.0194 6.82342 26.0432 6.84751 26.0676 6.87212C26.123 6.92895 26.1587 6.96315 26.1892 6.99233C26.2235 7.0251 26.2511 7.05155 26.2925 7.0966L26.2978 7.10244L26.3034 7.10811C26.3139 7.11887 26.3259 7.13251 26.3492 7.16005L26.3539 7.16552C26.3701 7.18473 26.393 7.2117 26.4189 7.23997C26.4206 7.24216 26.4226 7.24462 26.4247 7.24721C26.4292 7.25288 26.4366 7.26183 26.4459 7.27219C26.4942 7.32602 26.54 7.37622 26.5841 7.42456C26.6768 7.52614 26.762 7.6195 26.847 7.72111L26.9899 7.89204L27.2126 7.90007L28.9656 7.96331L28.9663 7.96333C29.1173 7.96859 29.2889 7.96801 29.4555 7.96745C29.5301 7.9672 29.6037 7.96695 29.674 7.96723C29.9145 7.96819 30.1413 7.97484 30.3454 8.0007C30.7895 8.05695 30.9349 8.17815 30.9825 8.29342L32.2971 11.4833L32.2972 11.4836C32.3447 11.5987 32.3269 11.788 32.0516 12.1419C31.9251 12.3045 31.7691 12.4695 31.5993 12.64C31.5485 12.691 31.4949 12.744 31.4405 12.7978C31.3232 12.9138 31.2025 13.0331 31.1004 13.1419L29.8999 14.4187L29.7497 14.5785L29.7655 14.7971C29.7758 14.94 29.7828 15.075 29.7876 15.2121L29.7878 15.2196L29.7883 15.227C29.7942 15.3177 29.799 15.4014 29.803 15.491L29.803 15.4919ZM29.7599 17.2788C29.7601 17.2805 29.76 17.2802 29.7599 17.2784L29.7599 17.2788ZM16.8194 23.5184C20.9719 23.5184 24.3385 20.1518 24.3385 15.9992C24.3385 11.8467 20.9719 8.48004 16.8194 8.48004C12.6668 8.48004 9.30018 11.8467 9.30018 15.9992C9.30018 20.1518 12.6668 23.5184 16.8194 23.5184Z" fill="white" stroke="#252E3C"/>
</svg>
