<svg width="46" height="46" viewBox="0 0 46 46" fill="none" xmlns="http://www.w3.org/2000/svg">
<path d="M36.8316 30.6156L27.075 40.3676C24.6088 42.87 20.5797 42.9016 18.0728 40.4309C18.0502 40.4083 18.0276 40.3857 18.0096 40.3676L5.24021 27.5892C2.70621 25.0643 2.69718 20.9629 5.22214 18.4289C5.22666 18.4244 5.23569 18.4154 5.24021 18.4108L18.0231 5.62794C20.4984 3.12556 24.532 3.10298 27.0344 5.57374C27.0525 5.5918 27.0705 5.60987 27.0886 5.62794L36.407 14.978L38.7558 12.6292L29.4284 3.27914C27.599 1.45882 25.1282 0.428956 22.5446 0.415405C19.9609 0.428956 17.4856 1.4543 15.6562 3.27914L2.87785 16.062C-0.952501 19.8879 -0.961535 26.0941 2.8643 29.9245C2.86882 29.929 2.87334 29.9335 2.87785 29.938L15.6562 42.7209C17.3185 44.3832 19.5272 45.3905 21.8715 45.5576C22.1019 45.5576 22.3232 45.5847 22.54 45.5847C22.7614 45.5847 22.9917 45.5847 23.2085 45.5576C25.5528 45.3905 27.7616 44.3832 29.4238 42.7209L39.1804 32.9644L36.8316 30.6156Z" fill="#F7CE2A"/>
<path fill-rule="evenodd" clip-rule="evenodd" d="M22.4994 11.7615L31.0816 20.3436L33.3401 18.0852L24.7579 9.50301C24.1752 8.8345 23.326 8.4596 22.4407 8.4867C21.6186 8.54994 20.8507 8.91581 20.2861 9.51656L13.5514 16.2558C12.0744 17.7374 12.0744 19.2234 13.5514 20.7095L22.4994 29.6621V25.2084L15.7828 18.4827L22.4994 11.7615Z" fill="#231F20"/>
<path fill-rule="evenodd" clip-rule="evenodd" d="M22.5807 34.2376L13.9985 25.6554L11.74 27.9139L20.3222 36.4961C20.9004 37.1646 21.7541 37.5395 22.6394 37.5124C23.4615 37.4491 24.2293 37.0787 24.7939 36.478L31.5242 29.7433C33.0102 28.2572 33.0102 26.7711 31.5242 25.2896L22.5807 16.337V20.7907L29.3018 27.5164L22.5807 34.2376Z" fill="#4F4C4D"/>
<path fill-rule="evenodd" clip-rule="evenodd" d="M33.3264 22.5888L35.5668 20.3348L37.8118 22.5888L35.5668 24.8292L33.3264 22.5888Z" fill="#231F20"/>
<path fill-rule="evenodd" clip-rule="evenodd" d="M7.336 23.0624L9.58091 20.8084L11.8213 23.0624L9.58091 25.3028L7.336 23.0624Z" fill="#4F4C4D"/>
</svg>
