<svg width="216" height="46" viewBox="0 0 216 46" fill="none" xmlns="http://www.w3.org/2000/svg">
<path d="M36.8316 30.6155L27.075 40.3675C24.6088 42.8699 20.5797 42.9015 18.0728 40.4307C18.0502 40.4082 18.0276 40.3856 18.0096 40.3675L5.24021 27.5891C2.70621 25.0642 2.69718 20.9628 5.22214 18.4288C5.22666 18.4243 5.23569 18.4152 5.24021 18.4107L18.0231 5.62782C20.4984 3.12544 24.532 3.10285 27.0344 5.57361C27.0525 5.59168 27.0705 5.60975 27.0886 5.62782L36.407 14.9779L38.7558 12.6291L29.4284 3.27902C27.599 1.45869 25.1282 0.428834 22.5446 0.415283C19.9609 0.428834 17.4856 1.45418 15.6562 3.27902L2.87785 16.0619C-0.952501 19.8878 -0.961535 26.094 2.8643 29.9244C2.86882 29.9289 2.87334 29.9334 2.87785 29.9379L15.6562 42.7208C17.3185 44.3831 19.5272 45.3903 21.8715 45.5575C22.1019 45.5575 22.3232 45.5846 22.54 45.5846C22.7614 45.5846 22.9917 45.5846 23.2085 45.5575C25.5528 45.3903 27.7616 44.3831 29.4238 42.7208L39.1804 32.9643L36.8316 30.6155Z" fill="#F7CE2A"/>
<path fill-rule="evenodd" clip-rule="evenodd" d="M22.4997 11.7613L31.0818 20.3434L33.3403 18.085L24.7581 9.50279C24.1754 8.83429 23.3263 8.45938 22.4409 8.48648C21.6189 8.54972 20.851 8.91559 20.2864 9.51634L13.5516 16.2556C12.0746 17.7371 12.0746 19.2232 13.5516 20.7093L22.4997 29.6618V25.2081L15.783 18.4824L22.4997 11.7613Z" fill="#231F20"/>
<path fill-rule="evenodd" clip-rule="evenodd" d="M22.5809 34.2375L13.9987 25.6553L11.7402 27.9138L20.3224 36.496C20.9006 37.1645 21.7543 37.5394 22.6396 37.5123C23.4617 37.449 24.2295 37.0786 24.7942 36.4779L31.5244 29.7432C33.0104 28.2571 33.0104 26.771 31.5244 25.2895L22.5809 16.3369V20.7906L29.302 27.5163L22.5809 34.2375Z" fill="#4F4C4D"/>
<path fill-rule="evenodd" clip-rule="evenodd" d="M33.3267 22.5887L35.5671 20.3347L37.812 22.5887L35.5671 24.8291L33.3267 22.5887Z" fill="#231F20"/>
<path fill-rule="evenodd" clip-rule="evenodd" d="M7.33594 23.0623L9.58085 20.8083L11.8212 23.0623L9.58085 25.3027L7.33594 23.0623Z" fill="#4F4C4D"/>
<path d="M52.7448 34.4408V24.7113H50.0347V20.7048H52.7448V11.558H64.9405C66.675 11.4858 68.3689 12.0639 69.6969 13.1796C70.9255 14.2592 71.5398 15.7633 71.5398 17.6965C71.5398 19.9098 70.6048 21.4275 68.7302 22.2541C71.4404 23.1259 72.7955 24.9824 72.7955 27.828C72.8723 29.6529 72.145 31.419 70.808 32.6566C69.4213 33.8852 67.6146 34.5311 65.7626 34.4634L52.7448 34.4408ZM56.9727 15.5646V20.7048H64.4798C65.2206 20.7319 65.9478 20.488 66.5169 20.0092C67.059 19.5349 67.3571 18.8393 67.321 18.1166C67.3616 17.3894 67.059 16.6893 66.4989 16.224C65.9297 15.7633 65.2115 15.5239 64.4798 15.5465L56.9727 15.5646ZM56.9727 24.7113V30.4343H65.3154C66.1465 30.4478 66.9551 30.1768 67.61 29.6664C68.2605 29.1786 68.6263 28.4017 68.5947 27.5886C68.6263 26.7756 68.265 25.9987 67.6281 25.4973C66.9731 24.9688 66.1556 24.6888 65.3154 24.7113H56.9727Z" fill="#121212"/>
<path d="M52.7448 34.4408V24.7113H50.0347V20.7048H52.7448V11.558H64.9405C66.675 11.4858 68.3689 12.0639 69.6969 13.1796C70.9255 14.2592 71.5398 15.7633 71.5398 17.6965C71.5398 19.9098 70.6048 21.4275 68.7302 22.2541C71.4404 23.1259 72.7955 24.9824 72.7955 27.828C72.8723 29.6529 72.145 31.419 70.808 32.6566C69.4213 33.8852 67.6146 34.5311 65.7626 34.4634L52.7448 34.4408ZM56.9727 15.5646V20.7048H64.4798C65.2206 20.7319 65.9478 20.488 66.5169 20.0092C67.059 19.5349 67.3571 18.8393 67.321 18.1166C67.3616 17.3894 67.059 16.6893 66.4989 16.224C65.9297 15.7633 65.2115 15.5239 64.4798 15.5465L56.9727 15.5646ZM56.9727 24.7113V30.4343H65.3154C66.1465 30.4478 66.9551 30.1768 67.61 29.6664C68.2605 29.1786 68.6263 28.4017 68.5947 27.5886C68.6263 26.7756 68.265 25.9987 67.6281 25.4973C66.9731 24.9688 66.1556 24.6888 65.3154 24.7113H56.9727Z" fill="white" fill-opacity="0.08"/>
<path d="M74.6787 30.6792L77.8857 27.8019C79.8551 29.8888 82.1136 30.9231 84.6611 30.9005C85.8762 30.9457 87.0867 30.7153 88.1979 30.2275C89.4852 29.6448 90.1311 28.7369 90.1311 27.5174C90.1311 26.1849 88.8573 25.295 86.3053 24.8569C82.091 24.1297 79.7196 23.6689 79.2002 23.4747C76.6481 22.5036 75.3698 20.6833 75.3743 18.0092C75.3743 15.7734 76.4403 14.0253 78.5768 12.7606C80.4739 11.6404 82.6466 11.0712 84.8463 11.1209C88.636 11.1209 91.6714 12.2863 93.957 14.6215L90.8222 17.4265C88.9748 15.6017 86.9106 14.6983 84.6295 14.7164C83.5635 14.6757 82.502 14.879 81.5309 15.3217C80.3881 15.8818 79.819 16.6948 79.819 17.7608C79.819 19.0978 81.0928 19.9741 83.6448 20.3851C87.7959 21.0672 90.1627 21.5189 90.7499 21.7402C93.302 22.7339 94.5803 24.5814 94.5758 27.278C94.5758 29.7307 93.4601 31.6775 91.2242 33.1093C89.2006 34.356 86.8563 34.9838 84.4804 34.9161C80.7585 34.9748 77.1856 33.43 74.6787 30.6792Z" fill="#121212"/>
<path d="M74.6787 30.6792L77.8857 27.8019C79.8551 29.8888 82.1136 30.9231 84.6611 30.9005C85.8762 30.9457 87.0867 30.7153 88.1979 30.2275C89.4852 29.6448 90.1311 28.7369 90.1311 27.5174C90.1311 26.1849 88.8573 25.295 86.3053 24.8569C82.091 24.1297 79.7196 23.6689 79.2002 23.4747C76.6481 22.5036 75.3698 20.6833 75.3743 18.0092C75.3743 15.7734 76.4403 14.0253 78.5768 12.7606C80.4739 11.6404 82.6466 11.0712 84.8463 11.1209C88.636 11.1209 91.6714 12.2863 93.957 14.6215L90.8222 17.4265C88.9748 15.6017 86.9106 14.6983 84.6295 14.7164C83.5635 14.6757 82.502 14.879 81.5309 15.3217C80.3881 15.8818 79.819 16.6948 79.819 17.7608C79.819 19.0978 81.0928 19.9741 83.6448 20.3851C87.7959 21.0672 90.1627 21.5189 90.7499 21.7402C93.302 22.7339 94.5803 24.5814 94.5758 27.278C94.5758 29.7307 93.4601 31.6775 91.2242 33.1093C89.2006 34.356 86.8563 34.9838 84.4804 34.9161C80.7585 34.9748 77.1856 33.43 74.6787 30.6792Z" fill="white" fill-opacity="0.08"/>
<path d="M115.819 27.7384L119.243 30.2272C116.93 33.2716 113.299 35.0197 109.477 34.9294C106.234 35.0016 103.099 33.7775 100.769 31.5236C98.4199 29.3193 97.1191 26.2207 97.2004 23.0001C97.1236 19.7841 98.4199 16.69 100.769 14.4903C103.104 12.2408 106.239 11.0122 109.477 11.0845C113.294 10.9896 116.93 12.7332 119.243 15.7731L115.747 18.3974C114.383 16.2699 112.002 15.0097 109.477 15.0775C107.386 15.0504 105.381 15.895 103.94 17.4127C100.882 20.4978 100.882 25.4754 103.94 28.5605C106.98 31.6455 111.939 31.6817 115.024 28.6418C115.313 28.3572 115.58 28.0501 115.819 27.7248V27.7384Z" fill="#121212"/>
<path d="M115.819 27.7384L119.243 30.2272C116.93 33.2716 113.299 35.0197 109.477 34.9294C106.234 35.0016 103.099 33.7775 100.769 31.5236C98.4199 29.3193 97.1191 26.2207 97.2004 23.0001C97.1236 19.7841 98.4199 16.69 100.769 14.4903C103.104 12.2408 106.239 11.0122 109.477 11.0845C113.294 10.9896 116.93 12.7332 119.243 15.7731L115.747 18.3974C114.383 16.2699 112.002 15.0097 109.477 15.0775C107.386 15.0504 105.381 15.895 103.94 17.4127C100.882 20.4978 100.882 25.4754 103.94 28.5605C106.98 31.6455 111.939 31.6817 115.024 28.6418C115.313 28.3572 115.58 28.0501 115.819 27.7248V27.7384Z" fill="white" fill-opacity="0.08"/>
<path d="M127.369 11.7842V34.5901H125.187V11.7842H127.369Z" fill="#121212"/>
<path d="M127.369 11.7842V34.5901H125.187V11.7842H127.369Z" fill="white" fill-opacity="0.08"/>
<path d="M144.57 18.483H146.62V34.5904H144.597V31.3969C143.242 33.6148 140.816 34.9518 138.214 34.9156C133.652 34.9156 130.002 31.6589 130.002 26.5412C130.002 21.4236 133.684 18.2708 138.246 18.2708C140.721 18.2708 143.359 19.409 144.57 21.6901V18.483ZM132.193 26.5277C132.193 30.34 134.926 32.8514 138.314 32.8514C146.625 32.8514 146.625 20.2401 138.314 20.2401C134.926 20.2537 132.193 22.7651 132.193 26.5412V26.5277Z" fill="#121212"/>
<path d="M144.57 18.483H146.62V34.5904H144.597V31.3969C143.242 33.6148 140.816 34.9518 138.214 34.9156C133.652 34.9156 130.002 31.6589 130.002 26.5412C130.002 21.4236 133.684 18.2708 138.246 18.2708C140.721 18.2708 143.359 19.409 144.57 21.6901V18.483ZM132.193 26.5277C132.193 30.34 134.926 32.8514 138.314 32.8514C146.625 32.8514 146.625 20.2401 138.314 20.2401C134.926 20.2537 132.193 22.7651 132.193 26.5412V26.5277Z" fill="white" fill-opacity="0.08"/>
<path d="M152.04 18.4822V27.516C152.04 30.8721 154.059 32.7918 157.32 32.7602C160.414 32.7602 162.596 30.3481 162.596 27.254V18.4822H164.746V34.5895H162.727L162.659 31.8794C161.304 33.9346 159.208 34.8109 156.959 34.8425C152.79 34.8425 149.858 32.1323 149.858 27.5477V18.4822H152.04Z" fill="#121212"/>
<path d="M152.04 18.4822V27.516C152.04 30.8721 154.059 32.7918 157.32 32.7602C160.414 32.7602 162.596 30.3481 162.596 27.254V18.4822H164.746V34.5895H162.727L162.659 31.8794C161.304 33.9346 159.208 34.8109 156.959 34.8425C152.79 34.8425 149.858 32.1323 149.858 27.5477V18.4822H152.04Z" fill="white" fill-opacity="0.08"/>
<path d="M180.89 34.5911V25.5572C180.89 22.0972 178.867 20.2905 175.642 20.2905C172.516 20.3221 170.366 22.7341 170.366 25.8282V34.5911H168.184V18.4837H170.271L170.334 21.1939C171.554 19.2968 173.677 18.172 175.935 18.2262C180.109 18.2262 183.103 20.7015 183.103 25.5256V34.5594L180.89 34.5911Z" fill="#121212"/>
<path d="M180.89 34.5911V25.5572C180.89 22.0972 178.867 20.2905 175.642 20.2905C172.516 20.3221 170.366 22.7341 170.366 25.8282V34.5911H168.184V18.4837H170.271L170.334 21.1939C171.554 19.2968 173.677 18.172 175.935 18.2262C180.109 18.2262 183.103 20.7015 183.103 25.5256V34.5594L180.89 34.5911Z" fill="white" fill-opacity="0.08"/>
<path d="M199.617 32.4092C198.036 33.9856 195.886 34.8664 193.655 34.8483C189.097 34.8483 185.316 31.7904 185.316 26.5417C185.316 21.293 188.998 18.2712 193.655 18.2712C195.8 18.2486 197.86 19.1068 199.355 20.6471L197.923 22.0473C196.798 20.9317 195.276 20.3083 193.691 20.3219C190.267 20.3219 187.498 22.5803 187.498 26.5417C187.498 30.6069 190.299 32.766 193.655 32.766C195.321 32.775 196.925 32.1246 198.117 30.9592L199.617 32.4092Z" fill="#121212"/>
<path d="M199.617 32.4092C198.036 33.9856 195.886 34.8664 193.655 34.8483C189.097 34.8483 185.316 31.7904 185.316 26.5417C185.316 21.293 188.998 18.2712 193.655 18.2712C195.8 18.2486 197.86 19.1068 199.355 20.6471L197.923 22.0473C196.798 20.9317 195.276 20.3083 193.691 20.3219C190.267 20.3219 187.498 22.5803 187.498 26.5417C187.498 30.6069 190.299 32.766 193.655 32.766C195.321 32.775 196.925 32.1246 198.117 30.9592L199.617 32.4092Z" fill="white" fill-opacity="0.08"/>
<path d="M203.687 11.7842V21.2968C205.042 19.1152 207.142 18.3021 209.292 18.2705C213.787 18.2705 216 21.2336 216 25.5653V34.5992H213.818V25.5653C213.818 22.3402 212.255 20.3528 209.03 20.3528C205.905 20.3528 203.718 22.7964 203.718 25.9222V34.5901H201.537V11.7842H203.687Z" fill="#121212"/>
<path d="M203.687 11.7842V21.2968C205.042 19.1152 207.142 18.3021 209.292 18.2705C213.787 18.2705 216 21.2336 216 25.5653V34.5992H213.818V25.5653C213.818 22.3402 212.255 20.3528 209.03 20.3528C205.905 20.3528 203.718 22.7964 203.718 25.9222V34.5901H201.537V11.7842H203.687Z" fill="white" fill-opacity="0.08"/>
</svg>
